<?xml version="1.0" encoding="UTF-8"?>
<svg xmlns="http://www.w3.org/2000/svg" version="1.1" viewBox="0 0 141.73 141.73">
  <defs>
    <style>
      .cls-1 {
        fill: #668c98;
      }

      .cls-2 {
        fill: #ccd9dd;
      }

      .cls-3 {
        fill: #0f7f9f;
      }

      .cls-4 {
        fill: #7ea5bd;
      }

      .cls-5 {
        fill: #99b2ba;
      }

      .cls-6 {
        fill: #1e404f;
      }

      .cls-7 {
        fill: #5590ad;
      }

      .cls-8 {
        fill: #004053;
      }
    </style>
  </defs>
  <!-- Generator: Adobe Illustrator 28.7.4, SVG Export Plug-In . SVG Version: 1.2.0 Build 166)  -->
  <g>
    <g id="Layer_1">
      <g>
        <path class="cls-4" d="M66.72,13.45c-1.33,5.33-3.06,10.49-5.17,15.46,1.16,1.13,1.88,2.71,1.88,4.46,0,3.45-2.8,6.25-6.25,6.25-.3,0-.6-.05-.89-.09-8.93,15.74-21.84,28.95-37.36,38.23v8.27c7.69-2.49,15.76-4.11,24.11-4.74,8.38-23.53,28.8-41.38,53.82-46.11-1.6-4.32-3.49-8.5-5.65-12.52l-14.73-8.51c-3-1.73-6.6-1.96-9.76-.71Z"/>
        <path class="cls-6" d="M95.71,116.47l17.57-10.15c-3.4-2.69-6.96-5.18-10.69-7.43-1.77,6.11-4.08,11.98-6.88,17.57Z"/>
        <path class="cls-3" d="M68.98,82.56c1.11-1.75,3.05-2.93,5.27-2.93,3.24,0,5.87,2.47,6.18,5.62,6.95,2.05,13.59,4.81,19.86,8.19,1.81-7.53,2.79-15.38,2.79-23.45,0-1.06-.05-2.1-.08-3.15-2.53-.8-4.37-3.14-4.37-5.93,0-2.41,1.38-4.48,3.38-5.52-.84-5.76-2.18-11.36-3.96-16.77-23.47,4.25-42.76,20.66-51.08,42.45,1.32-.05,2.65-.08,3.98-.08,6.15,0,12.17.54,18.03,1.57Z"/>
        <path class="cls-8" d="M53.02,37.98c-1.26-1.14-2.07-2.78-2.07-4.62,0-3.45,2.8-6.25,6.25-6.25.4,0,.78.05,1.16.12,1.56-3.69,2.87-7.51,3.99-11.41l-37.78,21.81c-3.48,2.01-5.62,5.72-5.62,9.74v26.14c14.08-8.84,25.81-21.06,34.07-35.53Z"/>
        <path class="cls-7" d="M74.25,92.12c-3.38,0-6.12-2.69-6.23-6.05-5.56-.95-11.26-1.48-17.08-1.48-1.77,0-3.52.05-5.26.14-1.04,3.29-1.85,6.69-2.38,10.17,2.16.98,3.68,3.15,3.68,5.68,0,2.81-1.86,5.15-4.41,5.94.06,2.83.28,5.62.68,8.36l21.99,12.7c3.48,2.01,7.76,2.01,11.24,0l13.28-7.67c4.09-7.13,7.33-14.79,9.59-22.87-6.18-3.41-12.75-6.17-19.62-8.23-1.05,1.96-3.1,3.31-5.48,3.31Z"/>
        <path class="cls-1" d="M34.49,100.58c0-3.11,2.28-5.67,5.25-6.15.49-3.21,1.2-6.35,2.1-9.41-7.93.72-15.6,2.36-22.9,4.82v4.51c0,4.02,2.14,7.73,5.62,9.74l14.78,8.53c-.21-2-.32-4.03-.36-6.08-2.59-.76-4.48-3.13-4.48-5.96Z"/>
        <path class="cls-2" d="M110.12,33.92c.21,0,.43.01.64.02l-13.87-8.01c1.32,2.82,2.52,5.71,3.59,8.66,3.15-.43,6.37-.67,9.63-.67Z"/>
        <path class="cls-5" d="M101.67,38.07c1.74,5.38,3.05,10.95,3.89,16.66,3.13.34,5.57,2.96,5.57,6.18,0,2.84-1.91,5.21-4.5,5.97.03,1.03.05,2.07.05,3.11,0,8.72-1.08,17.2-3.11,25.3,4.6,2.7,8.97,5.74,13.08,9.1l.52-.3c3.48-2.01,5.62-5.72,5.62-9.74v-46.98c0-3.83-1.96-7.37-5.16-9.43-2.47-.27-4.97-.43-7.51-.43-2.86,0-5.68.2-8.45.55Z"/>
      </g>
    </g>
  </g>
</svg>