<?xml version="1.0" encoding="UTF-8"?>
<svg xmlns="http://www.w3.org/2000/svg" version="1.1" viewBox="0 0 141.7 141.7">
  <defs>
    <style>
      .cls-1 {
        fill: #99b2ba;
      }

      .cls-2 {
        fill: #668c98;
      }

      .cls-3 {
        fill: #ccd9dd;
      }

      .cls-4 {
        fill: #0f7f9f;
      }

      .cls-5 {
        fill: #004053;
      }

      .cls-6 {
        fill: #7ea5bd;
      }

      .cls-7 {
        fill: #1e404f;
      }

      .cls-8 {
        fill: #5590ad;
      }

      .cls-9 {
        opacity: .6;
      }
    </style>
  </defs>
  <!-- Generator: Adobe Illustrator 28.7.4, SVG Export Plug-In . SVG Version: 1.2.0 Build 166)  -->
  <g>
    <g id="Layer_1">
      <g id="Layer_1-2" data-name="Layer_1">
        <g>
          <path class="cls-6" d="M66.7,13.4c-1.3,5.3-3.1,10.5-5.2,15.5,1.2,1.1,1.9,2.7,1.9,4.5,0,3.5-2.8,6.2-6.2,6.2s-.6,0-.9,0c-8.9,15.7-21.8,28.9-37.4,38.2v8.3c7.7-2.5,15.8-4.1,24.1-4.7,8.4-23.5,28.8-41.4,53.8-46.1-1.6-4.3-3.5-8.5-5.7-12.5l-14.7-8.5c-3-1.7-6.6-2-9.8-.7h0Z"/>
          <path class="cls-7" d="M95.7,116.5l17.6-10.2c-3.4-2.7-7-5.2-10.7-7.4-1.8,6.1-4.1,12-6.9,17.6h0Z"/>
          <path class="cls-4" d="M69,82.6c1.1-1.8,3.1-2.9,5.3-2.9,3.2,0,5.9,2.5,6.2,5.6,6.9,2.1,13.6,4.8,19.9,8.2,1.8-7.5,2.8-15.4,2.8-23.4s0-2.1,0-3.2c-2.5-.8-4.4-3.1-4.4-5.9s1.4-4.5,3.4-5.5c-.8-5.8-2.2-11.4-4-16.8-23.5,4.2-42.8,20.7-51.1,42.5,1.3,0,2.7,0,4,0,6.2,0,12.2.5,18,1.6Z"/>
          <path class="cls-5" d="M53,38c-1.3-1.1-2.1-2.8-2.1-4.6,0-3.5,2.8-6.2,6.2-6.2s.8,0,1.2.1c1.6-3.7,2.9-7.5,4-11.4l-37.8,21.8c-3.5,2-5.6,5.7-5.6,9.7v26.1c14.1-8.8,25.8-21.1,34.1-35.5Z"/>
          <path class="cls-8" d="M74.2,92.1c-3.4,0-6.1-2.7-6.2-6.1-5.6-.9-11.3-1.5-17.1-1.5s-3.5,0-5.3.1c-1,3.3-1.8,6.7-2.4,10.2,2.2,1,3.7,3.2,3.7,5.7s-1.9,5.2-4.4,5.9c0,2.8.3,5.6.7,8.4l22,12.7c3.5,2,7.8,2,11.2,0l13.3-7.7c4.1-7.1,7.3-14.8,9.6-22.9-6.2-3.4-12.8-6.2-19.6-8.2-1.1,2-3.1,3.3-5.5,3.3h0Z"/>
          <path class="cls-2" d="M34.5,100.6c0-3.1,2.3-5.7,5.2-6.2.5-3.2,1.2-6.3,2.1-9.4-7.9.7-15.6,2.4-22.9,4.8v4.5c0,4,2.1,7.7,5.6,9.7l14.8,8.5c-.2-2-.3-4-.4-6.1-2.6-.8-4.5-3.1-4.5-6h0Z"/>
          <path class="cls-3" d="M110.1,33.9c.2,0,.4,0,.6,0l-13.9-8c1.3,2.8,2.5,5.7,3.6,8.7,3.2-.4,6.4-.7,9.6-.7h0Z"/>
          <path class="cls-1" d="M101.7,38.1c1.7,5.4,3.1,11,3.9,16.7,3.1.3,5.6,3,5.6,6.2s-1.9,5.2-4.5,6c0,1,0,2.1,0,3.1,0,8.7-1.1,17.2-3.1,25.3,4.6,2.7,9,5.7,13.1,9.1l.5-.3c3.5-2,5.6-5.7,5.6-9.7v-47c0-3.8-2-7.4-5.2-9.4-2.5-.3-5-.4-7.5-.4s-5.7.2-8.4.5h0Z"/>
        </g>
      </g>
      <path class="cls-9" d="M106.7,75.6l-31.6-42.1c-2.1-2.8-6.3-2.8-8.4,0l-31.6,42.1c-2.6,3.5-.1,8.4,4.2,8.4h15.8v21.1c0,2.9,2.4,5.3,5.3,5.3h21.1c2.9,0,5.3-2.4,5.3-5.3v-21.1h15.8c4.3,0,6.8-5,4.2-8.4Z"/>
    </g>
  </g>
</svg>